<?xml version="1.0" standalone="no"?><!DOCTYPE svg PUBLIC "-//W3C//DTD SVG 1.1//EN" "http://www.w3.org/Graphics/SVG/1.1/DTD/svg11.dtd"><svg t="1743929062823" class="icon" viewBox="0 0 1024 1024" version="1.1" xmlns="http://www.w3.org/2000/svg" p-id="7053" xmlns:xlink="http://www.w3.org/1999/xlink" width="256" height="256"><path d="M758.26 768.01L523.49 533.18c-11.71-11.72-11.71-30.71 0-42.42l234.77-234.77c16.24-16.24 42.56-16.24 58.8-0.02l0.02 0.02c16.26 16.24 16.26 42.59 0.01 58.84L619.91 511.97l197.2 197.2c16.25 16.25 16.24 42.6-0.02 58.84l-0.03 0.03c-16.24 16.22-42.56 16.21-58.8-0.03z m-320 0L203.49 533.19c-11.71-11.72-11.71-30.71 0-42.43L438.31 256c16.24-16.24 42.57-16.24 58.82 0 16.24 16.24 16.24 42.58 0 58.82L299.98 511.97l197.14 197.2c16.24 16.25 16.24 42.59-0.02 58.83l-0.03 0.03c-16.25 16.23-42.57 16.22-58.81-0.02z" p-id="7054"></path></svg>