<?xml version="1.0" standalone="no"?><!DOCTYPE svg PUBLIC "-//W3C//DTD SVG 1.1//EN" "http://www.w3.org/Graphics/SVG/1.1/DTD/svg11.dtd"><svg t="1743073266849" class="icon" viewBox="0 0 1024 1024" version="1.1" xmlns="http://www.w3.org/2000/svg" p-id="3732" xmlns:xlink="http://www.w3.org/1999/xlink" width="200" height="200"><path d="M777.11 294.567c0 1.1-0.9 2-2 2h-51.563c-1.1 0-2-0.9-2-2v-138.39c0-1.1 0.9-2 2-2h51.563c1.1 0 2 0.9 2 2v138.39z" fill="#F29600" p-id="3733"></path><path d="M848.392 241.003c1.1 0 2 0.9 2 2v51.564c0 1.1-0.9 2-2 2H723.547c-1.1 0-2-0.9-2-2v-51.564c0-1.1 0.9-2 2-2h124.845z" fill="#F29600" p-id="3734"></path><path d="M758.889 438.625c-102.655 0-186.153-83.517-186.153-186.172 0-102.665 83.498-186.181 186.153-186.181 102.674 0 186.19 83.517 186.19 186.181 0 102.655-83.516 186.172-186.19 186.172z m0-318.202c-72.796 0-132.012 59.224-132.012 132.029 0 72.796 59.216 132.021 132.012 132.021 72.813 0 132.047-59.224 132.047-132.021 0-72.805-59.234-132.029-132.047-132.029z" fill="#F29600" p-id="3735"></path><path d="M666.773 769.198c0 1.1-0.9 2-2 2H250.597c-1.1 0-2-0.9-2-2V699.52c0-1.1 0.9-2 2-2h414.176c1.1 0 2 0.9 2 2v69.678zM648.354 563.564c0 1.1-0.9 2-2 2H250.597c-1.1 0-2-0.9-2-2v-69.678c0-1.1 0.9-2 2-2h395.757c1.1 0 2 0.9 2 2v69.678zM501 357.938c0 1.1-0.9 2-2 2H250.597c-1.1 0-2-0.9-2-2v-69.677c0-1.1 0.9-2 2-2H499c1.1 0 2 0.9 2 2v69.677z" fill="#F29600" p-id="3736"></path><path d="M743.456 877.736c0 1.1-0.9 2-2 2h-576.84c-1.1 0-2-0.9-2-2V172.528c0-1.1 0.9-2 2-2h342.37c1.1 0 2.145-0.888 2.322-1.974l15.937-69.789c0.317-1.053-0.323-1.915-1.423-1.915H88.07c-1.1 0-2 0.9-2 2v852.564c0 1.1 0.9 2 2 2h729.941c1.1 0 2-0.9 2-2v-433.02c0-1.1-0.897-2.061-1.995-2.135l-72.595-8.964c-1.08-0.205-1.965 0.528-1.965 1.628v368.813z" fill="#F29600" p-id="3737"></path></svg>